<?xml version="1.0" encoding="utf-8"?>
<!-- Generator: Adobe Illustrator 24.0.3, SVG Export Plug-In . SVG Version: 6.00 Build 0)  -->
<!DOCTYPE svg PUBLIC "-//W3C//DTD SVG 1.1//EN" "http://www.w3.org/Graphics/SVG/1.1/DTD/svg11.dtd" [
	<!ENTITY ns_extend "http://ns.adobe.com/Extensibility/1.0/">
	<!ENTITY ns_ai "http://ns.adobe.com/AdobeIllustrator/10.0/">
	<!ENTITY ns_graphs "http://ns.adobe.com/Graphs/1.0/">
	<!ENTITY ns_vars "http://ns.adobe.com/Variables/1.0/">
	<!ENTITY ns_imrep "http://ns.adobe.com/ImageReplacement/1.0/">
	<!ENTITY ns_sfw "http://ns.adobe.com/SaveForWeb/1.0/">
	<!ENTITY ns_custom "http://ns.adobe.com/GenericCustomNamespace/1.0/">
	<!ENTITY ns_adobe_xpath "http://ns.adobe.com/XPath/1.0/">
]>
<svg version="1.1" id="general_1_" xmlns:x="&ns_extend;" xmlns:i="&ns_ai;" xmlns:graph="&ns_graphs;"
	 xmlns="http://www.w3.org/2000/svg" xmlns:xlink="http://www.w3.org/1999/xlink" x="0px" y="0px" viewBox="0 0 600 600"
	 style="enable-background:new 0 0 600 600;" xml:space="preserve">
<style type="text/css">
	.st0{fill:#EACB86;}
	.st1{fill:#51A8A3;}
	.st2{fill:#E090C7;}
	.st3{fill:#AA4704;}
	.st4{fill:#FFFFFF;}
</style>
<metadata>
	<sfw  xmlns="&ns_sfw;">
		<slices></slices>
		<sliceSourceBounds  bottomLeftOrigin="true" height="554.7" width="588.6" x="6" y="-583"></sliceSourceBounds>
	</sfw>
</metadata>
<g id="general">
	<path class="st0" d="M541.5,283.5c0,0-7.9,35-16.3,68.5c-11.1,3.3-27.1,10.2-34.2,23.1c-11.4,20.7,10.7,26.3,0,40.3
		c-9,11.7-13.4,28.3-3.8,40.6c-26.3,51.5-68.9,118.1-109,125.1c-58.9,10.3-162.3-28.9-206.8-46.5c-22.4-8.8-60.5-35.5-94.2-62.8
		c-1.9-11.4-6.2-23.4-15.1-30.4c-20.3-16-4.2-59.1-13.1-77.6c-6.6-13.7-29.5-4-40.8,1.9c5.3-29.2,19.1-66,32.9-93.7
		C62.8,228.7,77.3,205,77.3,205c-4.1-39.3,55.8-140.6,84.8-168.5S184.8,59.2,190,85c5.2,25.8,20.7,102.3,20.7,102.3
		c18,1.9,34.5,4.3,49.3,6.9c2.7,17.4,8.5,42.4,21,55.6c20.5,21.5,38.3,6.9,58.8,0c20.5-6.9,42,11.3,53-8.9c1.4-2.6,2.5-5.4,3.3-8.3
		c7.4,3,14.2,5.9,20.3,8.6c0,0,117.9-119.9,164.4-121C627.3,119.2,541.5,283.5,541.5,283.5z"/>
	<path class="st1" d="M233.3,289.6c-2.9,22.3-26.6,41.3-51.3,38.3c-3-0.4-6-1-8.9-2c-15.8-5.3-29.2-19.1-31-37
		c-1.8-18.7,9.9-34.6,23-42.1c11.1-6.4,22.2-6.1,27.2-5.6c3.6,0.4,13.4,1.8,22.8,8.7c2,1.5,4.1,3.2,6,5.3
		C222.7,256.8,235.7,271,233.3,289.6z"/>
	<path d="M208.3,299.9c-6.8,10.7-16,16.2-21.5,19.5c-5.3,3.2-10.1,5.2-13.6,6.5c0.9-13.9,3.3-31,9.6-42.3
		c7.3-13,21.8-25.6,32.4-33.7c0.7,3.2,1.4,7.9,1.6,13.6C216.9,270.8,217.3,285.7,208.3,299.9z"/>
	<path class="st1" d="M439.6,354.4c-2.9,22.3-26.6,41.3-51.3,38.3c-3-0.4-6-1-8.9-2c-15.8-5.3-29.2-19.1-31-37
		c-1.8-18.7,9.9-34.6,23-42.1c11.1-6.4,22.2-6.1,27.2-5.6c3.6,0.4,13.4,1.8,22.8,8.7c2,1.5,4.1,3.2,6,5.3
		C429,321.5,442,335.8,439.6,354.4z"/>
	<path d="M414.5,364.6c-6.8,10.7-16,16.2-21.5,19.5c-5.3,3.2-10.1,5.2-13.6,6.5c0.9-13.9,3.3-31,9.6-42.3
		c7.3-13,21.8-25.6,32.4-33.7c0.7,3.2,1.4,7.9,1.6,13.6C423.2,335.6,423.6,350.5,414.5,364.6z"/>
	<path class="st2" d="M333.9,473.9c-1.5,2.2-16.9,23.9-42.6,23.9c-24.6-0.1-46-20-48.3-39c-0.6-5.3,0.4-9.6,9.1-30.4
		c20.6-5.6,66.6-31.3,65.3-46.9c-1.5-18.4-27.9-16.9-53.6-23.2c-25.7-6.3-50,4.1-46.6,20.3c2.6,12.4,16.9,35.5,23.5,45.7
		c-6.9,13.1-15.1,24.6-28.6,29.4c-22.4,8-51.6-5.4-64.4-27.9c-4.4-7.7-6.7-17.4-5.6-29.8l-14.6-3c0,0,2.3,39.1,14.6,48.3
		c12.3,9.2,68.7,48.3,89,21.2c10.5,26.9,31.5,46.7,55.2,49.3c19.2,2.1,38.4-7.3,43.2-9.8c8.1-4.2,14.1-8.9,18.1-12.6
		C343,484.2,338.4,479.1,333.9,473.9z"/>
	<path class="st3" d="M198.5,397.7c0,0-59.2-57.7-64.9-63.5c-5.7-5.7-28.5-23.4-28.5-23.4l-7.1,9.1l97,83.4L198.5,397.7z"/>
	<path class="st3" d="M187.8,409.2c0,0-69.9-44.2-76.7-48.6c-6.8-4.4-32.8-17-32.8-17l-5.1,10.4l112.3,61.4L187.8,409.2z"/>
	<path class="st3" d="M187,423.1c0,0-79-24.3-86.7-26.8s-36.1-7.8-36.1-7.8l-2.2,11.4l124.4,29.8L187,423.1z"/>
	<path class="st3" d="M286.2,434.6c0,0,92.9-13.9,102.3-16.2c9.4-2.2,31.3-7.8,31.3-7.8l1,14.5c0,0-86.6,12.2-103.2,14.2
		s-30.9,2.2-30.9,2.2L286.2,434.6z"/>
	<path class="st3" d="M285.9,453.3c0,0,93.9-0.8,103.5-1.7c9.6-0.9,32-3.3,32-3.3l-1,14.5c0,0-87.5-0.1-104.2-0.4
		c-16.7-0.4-30.9-2.2-30.9-2.2L285.9,453.3z"/>
	<path class="st3" d="M283.7,469.8c0,0,89.1,29.8,98.4,32c9.4,2.3,31.4,7.3,31.4,7.3l-5.7,13.4c0,0-82.7-28.4-98.4-34.2
		c-15.6-5.8-28.5-12.1-28.5-12.1L283.7,469.8z"/>
	<polygon class="st3" points="157.9,208.4 248.9,220 245.8,236.6 215.5,231.1 154.7,225.7 	"/>
	<polygon class="st3" points="384.6,262.5 469.2,297.9 461.9,313.1 434.2,299.8 376.9,278.4 	"/>
	<path class="st4" d="M195.7,268.3c0.4,8.2-6.8,13.9-13,15.2c-1.3,0.3-6.8,1.3-11.8-2.3c-3.8-2.7-6.2-7.1-6.2-11.6
		c0.1-8.1,8.3-15.9,17.2-15.1C188.7,255.3,195.4,260.8,195.7,268.3z"/>
	<path class="st4" d="M407.8,329.9c0.4,7.6-5.6,13.1-11.3,14.9c-0.9,0.3-8.3,2.4-14-2.5c-5.3-4.6-4.7-11.4-4.7-12.1
		c0.7-7.4,7.6-14.7,16.2-14C401.1,316.8,407.4,322.6,407.8,329.9z"/>
	<path class="st2" d="M103.8,184.4c0,0,9.7-45.8,26.8-76.6s25.3-61.6,34.2-55.1c9,6.5-4.3,58.8,0,81.2s3.2,50.4,3.2,50.4
		c-7.4,3.1-17.7,6.3-22.9,1.7c-6.1-5.4-2-19-4.7-19.7c-3-0.7-8.9,17.1-11.7,16.4c-3.1-0.7,1.9-22.9-2.8-24.8
		C123.2,156.9,117.2,162.3,103.8,184.4z"/>
	<path class="st2" d="M511.2,277.2c0,0,29.3-36.4,42.4-69.1c12-29.9,28.7-54,23.2-60.1c-0.6-0.7-1.3-0.9-2.1-1.2
		c-9.5-3.8-21.4,8.9-38.7,23.6c-12.2,10.4-2.1,0.6-30.8,24c-10,8.2-23.7,19.6-40,33.7c6-1.4,13.7-2.4,16.9,1.5
		c4.2,5-0.7,15.7,1.6,16.6c1.7,0.7,4.1-5,11.2-7.9c1.8-0.7,5.6-2.3,7-0.9c2.9,3-8.5,15.8-5.3,19.4c1.7,1.9,6.6,0.4,9.3-0.8
		c8.3-3.9,10.7-13,11.8-12.7C518.6,243.6,518.1,249.4,511.2,277.2z"/>
	<path class="st3" d="M396.1,232.6c-0.8,2.9-1.9,5.7-3.3,8.3c-11.1,20.3-32.6,2-53,8.9c-20.5,6.9-38.3,21.5-58.8,0
		c-12.5-13.2-18.4-38.2-21-55.6c13.8,2.4,26.1,5,36.8,7.4c21.2,4.8,36.9,9.4,41.8,10.9C360.6,219,379.9,226,396.1,232.6z"/>
	<path class="st3" d="M77.2,471.9c-33.3-27-62.4-54.6-68.1-66.4c-4.1-8.7-3.9-23-0.9-39.7c11.3-5.9,34.1-15.6,40.8-1.9
		c8.9,18.4-7.2,61.5,13.1,77.6C71,448.5,75.2,460.6,77.2,471.9z"/>
	<path class="st3" d="M525.2,352c-4.8,19.3-9.9,38-13.6,49.3c-3.3,9.9-12,30.7-24.3,54.8c-9.7-12.4-5.2-28.9,3.8-40.6
		c10.7-14-11.4-19.6,0-40.3C498.1,362.3,514.1,355.4,525.2,352z"/>
</g>
</svg>
