<?xml version="1.0" encoding="utf-8"?>
<!-- Generator: Adobe Illustrator 24.0.3, SVG Export Plug-In . SVG Version: 6.00 Build 0)  -->
<!DOCTYPE svg PUBLIC "-//W3C//DTD SVG 1.1//EN" "http://www.w3.org/Graphics/SVG/1.1/DTD/svg11.dtd" [
	<!ENTITY ns_extend "http://ns.adobe.com/Extensibility/1.0/">
	<!ENTITY ns_ai "http://ns.adobe.com/AdobeIllustrator/10.0/">
	<!ENTITY ns_graphs "http://ns.adobe.com/Graphs/1.0/">
	<!ENTITY ns_vars "http://ns.adobe.com/Variables/1.0/">
	<!ENTITY ns_imrep "http://ns.adobe.com/ImageReplacement/1.0/">
	<!ENTITY ns_sfw "http://ns.adobe.com/SaveForWeb/1.0/">
	<!ENTITY ns_custom "http://ns.adobe.com/GenericCustomNamespace/1.0/">
	<!ENTITY ns_adobe_xpath "http://ns.adobe.com/XPath/1.0/">
]>
<svg version="1.1" id="general_1_" xmlns:x="&ns_extend;" xmlns:i="&ns_ai;" xmlns:graph="&ns_graphs;"
	 xmlns="http://www.w3.org/2000/svg" xmlns:xlink="http://www.w3.org/1999/xlink" x="0px" y="0px" viewBox="0 0 600 600"
	 style="enable-background:new 0 0 600 600;" xml:space="preserve">
<style type="text/css">
	.st0{fill:#FF7300;}
	.st1{fill:#FFD652;}
	.st2{fill:#32B244;}
	.st3{fill:#007A96;}
	.st4{fill:#FF0068;}
	.st5{fill:#FFFFFF;}
</style>
<metadata>
	<sfw  xmlns="&ns_sfw;">
		<slices></slices>
		<sliceSourceBounds  bottomLeftOrigin="true" height="518.8" width="576.9" x="11.5" y="-555.8"></sliceSourceBounds>
	</sfw>
</metadata>
<g id="general">
	<path class="st0" d="M513.2,265.4c2.4-2.3,10.7-0.7,13.1-4.1c3.6-4.9-30.3-14.1-30.2-19.1c0.1-5,8.4,5.3,14.7,0
		c6.2-5.3-32.4-18.6-35.1-21.8c-2.6-3.1,12.4-0.4,22-7.5c6.9-5.2-19.9-4.5-35.2-3.7c7.4-5.2,20.9-18,32.5-46.8c17-42,24-101,2-117
		s-57-8-68,15c-11,22.9-10,65.7-49.7,101.7c0.6-4.1,0.9-9.6-0.9-11.3c-3-2.9-18.6,5.9-22.3,4.5c-3.7-1.3,10.3-4,6.7-6.3
		c-3.7-2.3-25.9,2.3-30.9,1.8c-5-0.5,3.7-3.5,9.6-6.8c6-3.3-25.3,3.3-33.4,6.8c-8.2,3.5,2.2-5.1,4.5-10.1
		c1.9-4.1-12.3,12.8-17.3,18.8c-2,0.5-4.1,1-6.1,1.5c0,0,0,0,0.1,0c14.2,30.4,26.4,54.6,34.9,70.9c16,30.8,22.2,40.3,27,59
		c5.3,20.5,12.8,49.9-0.2,69.2c-21.9,32.4-95.8,27-144.2-2c-31.2-18.7-49.2-45.6-59.1-65.8c-3.9,3.5-2.9,2.8-5.7,5.1
		c-25,20-42,34-64,61s-35,38-39,71c-0.8,6.9-0.8,14,0.1,20.8c3.3,25.8,18.4,48.8,42.9,51.2c13.4,1.3,29.2,3.3,47.4,3.4
		c24,0.1,52.2-3.3,84.6-16.4c46.6-18.8,69.8-28.2,76.7-31.1c-0.8,7.4-1.5,16.2-0.2,14.6c2.2-2.7,2.2-10.6,3.5-6.8
		c1.4,3.8-0.5,15.2,2.4,18.4c3,3.2,1.4-10,3.2-6.8s-1.4,20.3,1.4,23.3c2.7,3,1.9-15,4.9-11.9s-0.3,12.8,5.1,14.7
		c2.6,0.9,3.5-2.7,3.7-6.7c14.1-16.3,40.3-46.1,58.9-63.7c21.8-20.7,125.4-108.1,162.3-139.2C529.2,284.1,521.6,274.8,513.2,265.4z"
		/>
	<path class="st0" d="M79.5,144.2c-3.8-12.2-1.7-25.3,5.6-34.8c16-21,65-11,99,6s69,56,69,56c-28.1,12.9-44.1,33.2-53.6,45.5
		c-2.3,2.9-4.3,5.8-6.3,8.6c-4.6-5.9-12.3-14.5-23.4-22.8c-16.6-12.3-22.3-19.4-49.7-25.3C97.2,172.5,84.1,158.9,79.5,144.2z"/>
	<path class="st1" d="M351.3,290.9c-4.8-18.7-10.9-28.2-27-59c-8.5-16.3-20.8-40.5-34.9-70.9c0,0,0,0-0.1,0
		c-17.7,4.5-34.6,9.8-36.2,10.3c0,0,0,0-0.1,0c0,0,0,0,0,0c-28.1,12.9-44.1,33.2-53.6,45.5c-2.3,2.9-4.3,5.8-6.3,8.6
		c-0.3,0.5-0.6,0.9-0.9,1.4c-1.8,3.5-6.7,12.7-13.2,23.5c-8.4,13.9-19.7,30.6-31.3,41.8c9.9,20.2,27.9,47.1,59.1,65.8
		c48.4,28.9,122.3,34.3,144.2,2C364.1,340.8,356.6,311.4,351.3,290.9z"/>
	<path class="st2" d="M290.9,323.3c-11.1,6.4-27.2,10.5-46.6,8.9c0,0-3.2-39,10.9-46.8c7.3-4,16.9-6.2,26.3-5.3
		c8.8,0.9,17.5,4.5,23.6,11.9C312.5,300.9,306.5,314.4,290.9,323.3z"/>
	<path class="st3" d="M549.2,282.2c0,0-4.9,4.1-13.1,11c-36.9,31.1-140.5,118.5-162.3,139.2c-19.8,18.7-48.1,51.1-61.5,66.6
		c-4.6,5.4-7.4,8.7-7.4,8.7l38,48.2c0,0,126.3-101,155.7-126.9c29.5-25.9,89.8-97.7,89.8-97.7L549.2,282.2z"/>
	<path class="st4" d="M414.1,168.8c0,0,24.6-22.5,27.7-43c3.1-20.5-1-49.5,19.5-61.1c20.5-11.6,40,8.9,36.9,25.3
		c-3.1,16.4-31.2,94.3-51.5,110.6c-20.3,16.4-0.9-17.4-3.3-22.2c-2.4-4.7-14.7,15.2-14.7,15.2s7.6-16.1,2.8-20.4
		c-4.7-4.3-11.4,13.8-11.4,13.8c-0.2-2.2-0.2-5.4,0.8-9c1.2-4.4,3.1-6.4,2.2-8C422.5,168.9,420.5,167.9,414.1,168.8z"/>
	<path class="st4" d="M187.6,197.4c-0.8,1.5,10.3,7.6,9,11.7c-0.3,0.8-0.9,1.3-1.1,1.4c-4.4,2.9-17.2-8.9-20.2-11.8
		c-10.6-7.9-20.2-14.4-28.3-19.4c-13-8.2-19.5-12.2-25.5-14.8c-16.3-6.9-24.2-5.4-30.5-13.8c-3.1-4.2-6.1-11.2-3.4-15.9
		c2.6-4.5,9.5-5,12.3-5.2c36.2-2.7,102.4,60.7,102.8,67.8c0,0.8-0.3,1.3-0.3,1.3C200.2,201.7,188.4,195.9,187.6,197.4z"/>
	<path d="M290.9,323.3c-1.5,0-3.1-0.2-4.6-0.5c-11.6-2.7-18.7-15-15.7-27.5c1.6-6.7,5.7-12.1,11-15.2c8.8,0.9,17.5,4.5,23.6,11.9
		C312.5,300.9,306.5,314.4,290.9,323.3z"/>
	<path class="st5" d="M278.6,293c0.8,4.4-2.7,9.1-7.4,9.3c-4.7,0.1-8.7-4.4-8-9c0.6-4,4.6-6.8,8.6-6.4
		C275.2,287.2,278,289.8,278.6,293z"/>
	<path class="st4" d="M205.3,419c0,0-5.7,33-21.4,44.9c-12,9-28.9,29.5-54.4,40.9c-18.2-0.1-34-2.1-47.4-3.4
		C57.6,499,42.5,476,39.2,450.2l9.4,2c0,0,5.7,29.2,30.6,36.3c24.9,7.1,42,6.4,50.6,0c8.6-6.4,61.3-34.4,60.6-69.6H205.3z"/>
	<path d="M63.3,440.9c-6,7.8-10.7,13.7-18,14.4c-13.4,1.2-25-16-29.5-27.6c-2-5.3-8.4-21.6,0-34.3c8-12.1,24-13.1,36.7-13.8
		c12.3-0.8,22.2-1.4,27.7,4.8C91.5,397,73.6,427.6,63.3,440.9z"/>
	<path class="st1" d="M116.2,438.1c-0.5,2.6-2.6,4.6-5.2,4.9c-3.3,0.4-6.4-2-6.8-5.2c-0.5-3.8,3.1-7.4,6.9-6.9
		C114.3,431.4,116.8,434.8,116.2,438.1z"/>
	<path class="st1" d="M159.8,438.1c-0.5,2-2.4,3.9-4.9,4c-2.7,0.1-4.7-2.1-5.2-4.3c-0.7-3.2,2-6.8,5-6.9
		C157.9,430.9,160.7,434.9,159.8,438.1z"/>
	<path class="st1" d="M149.2,389.5c-0.4,2.3-2.2,4.6-4.8,5c-3.3,0.5-6.5-2.2-6.8-5.4c-0.4-3.8,3.3-7.5,6.9-6.9
		C147.6,382.7,149.8,386.3,149.2,389.5z"/>
	<path class="st0" d="M231.2,245c0,0,29.9,1,36.6,2.4c6.7,1.4,32.5,1.9,32.5,1.9v-12c0,0-29.7-2.9-35.7-2.9s-33.4-3.9-33.4-3.9V245z
		"/>
	<path class="st2" d="M366.5,505.4c-1.3,5-5.8,11.6-13.1,12c-7.2,0.3-13.3-5.4-14.4-11.7c-1.6-9,7.4-16.5,14.7-17.5
		c1-0.1,5-0.7,8.5,1.8C367.1,493.4,367.8,500.6,366.5,505.4z"/>
	<path class="st2" d="M434.8,446.2c-1.6,5.9-7.4,12.1-14.6,11.4c-7.4-0.8-11.9-8.3-12-14.6c-0.1-8.7,8.1-17.2,16.1-15.9
		C432,428.4,436.9,438.2,434.8,446.2z"/>
	<path class="st2" d="M497.7,386.1c0.1,8.5-7.5,15.2-15.5,15.2c-6.7,0-13-4.7-14.5-10.8c-2.2-9.3,7.2-20.1,17-18.9
		C491.4,372.3,497.6,378.5,497.7,386.1z"/>
	<path class="st2" d="M561.1,331.4c-0.1,8.9-9.9,15.8-18.4,13.6c-6-1.5-11.1-7.5-10.7-14.6c0.4-7,6-12.3,12-13.3
		C552.5,315.8,561.3,322.9,561.1,331.4z"/>
</g>
</svg>
