<svg width="143" height="143" viewBox="0 0 143 143" fill="none" xmlns="http://www.w3.org/2000/svg"><g clip-path="url(#clip0_552_2273)"><path d="M131.901 125.613c-7.265-3.879-2.842-5.436-19.694-16.58-3.311-2.2-6.202-3.509-8.772-4.152-5.412-1.383-9.39.173-12.726 2.793-3.188 2.471-5.807 5.881-8.55 8.624-6.993 6.993-5.436 3.113-13.986 1.284-8.55-1.803-13.467-2.841-22.808 4.399-3.434 2.669-5.189 5.51-5.584 6.128-1.63 2.545-5.066 7.907-3.484 11.243 1.977 4.176 11.07 3.682 20.979 3.114 11.391-.643 14.53-2.521 25.402-2.595 2.62-.025 6.104.247 12.948.766 16.482 1.285 28.887 2.793 39.908-1.285 1.68-.617 3.953-1.68 4.497-3.558.964-3.286-3.089-7.487-8.13-10.181z" fill="#E5AE00"/><path d="M104.844 99.67a42.714 42.714 0 01-.594 2.421 57.834 57.834 0 01-.815 2.767c-5.412-1.384-9.39.173-12.726 2.793.37-1.78.816-4.028 1.26-6.499.198-1.063.371-2.175.569-3.311.173-1.088.346-2.2.519-3.312.741-5.09 1.062-7.141.939-10.526-.025-.84-.074-1.73-.173-2.793-.173-2.075-.42-4.744-.791-8.45-.222-2.2-.42-4.226-.642-6.153-.223-2.002-.47-3.855-.717-5.585-.717-4.744-1.631-8.525-3.114-11.614a21.985 21.985 0 00-.988-1.853 15.667 15.667 0 00-1.013-1.483c-2.62-3.434-4.226-5.436-6.672-6.968a12.855 12.855 0 00-.988-.568c-.223-.618-.445-1.236-.717-1.829-1.137-2.644-2.743-5.164-4.991-7.388-2.67-2.644-5.041-3.657-4.695-4.547.494-1.334 6.128-.099 11.762.939a34.876 34.876 0 015.164 2.916c.643.445 1.26.89 1.878 1.359a46.188 46.188 0 013.657 3.113c2.348 2.15 4.325 5.017 5.98 8.278.247.494.494.989.717 1.508 2.15 4.695 3.682 10.106 4.695 15.345.099.543.222 1.112.346 1.73.222 1.087.494 2.273.766 3.533 1.112 4.942 2.446 11.194 2.792 18.36l.074 1.878c.148 4.942-.222 10.304-1.482 15.938z" fill="#004031"/><path d="M85.347 17.753c-9.711-6.078-15.765.544-26.712-3.607C48.8 10.414 48.405 3.05 36.915.629c-3.93-.815-8.748-.988-9.217.396-.989 2.94 18.014 10.97 17.1 13.467-.84 2.298-16.581-5.09-32.816 1.186-5.659 2.199-11.49 6.078-10.947 7.858.495 1.606 6.128 1.285 14.308.84 11.762-.643 19.694-2.348 20.781.247.123.296.173.568.123.741-.766 2.224-14.134-.667-20.707 10.008C8.374 47.01 3.68 51.928 6.15 59.094c2.471 7.166 17.89-13.196 24.612-16.111 6.721-2.916 10.971-11.639 10.971-6.03 0 5.585.223 11.861 3.583 19.027 2.94 6.277 6.573 12.034 8.476 11.417.37-.124.568-.445.692-.668 2.397-4.176.617-13.961.939-23.277.074-2.323.321-5.51 2.224-6.45 1.038-.518 2.397-.222 3.187-.073.1.024 2.051.444 3.732 1.803 3.088 2.521 4.349 7.513 4.793 9.143 2.472 8.946 8.575 16.877 10.552 16.334 1.136-.321 1.161-3.435 1.161-6.894 0-5.659.025-12.529-2.15-18.805-1.161-3.336-2.94-6.499-5.683-9.217-2.669-2.644-5.041-3.657-4.695-4.546.494-1.335 6.128-.1 11.762.938 5.436 1.014 10.873 1.854 11.713.05.79-1.73-2.891-5.61-6.672-7.982z" fill="#60772F"/><path d="M106.35 83.705l-7.19 4.991-.717-5.88-1.408-1.879-3.04 3.04c-.025-.84-.074-1.73-.173-2.793l5.807-3.088 2.348 6.35 2.594-1.408 1.705-1.211c.05.642.074 1.26.074 1.878zm-2.866-20.212l-2.174-1.853-1.36 8.97-4.077-7.76-3.46 3.732a174.83 174.83 0 00-.716-5.585l3.09-2.866 3.68 7.759 1.039-7.76 3.237 1.805c.197 1.112.469 2.298.741 3.558zm-5.807-20.608l-1.828 3.854-5.486-2.421-1.779 5.065a22.012 22.012 0 00-.988-1.853l.444-6.425 7.834 2.422 1.087-2.174c.247.518.494 1.037.716 1.532zm-10.378-12.9l-1.928 6.35-5.288-3.731-.197 6.499a13.248 13.248 0 00-.989-.569c-.222-.617-.445-1.235-.716-1.828l.42-6.647 5.757 2.891 1.063-4.3c.642.42 1.26.865 1.878 1.335zm17.545 69.683a43.43 43.43 0 01-.593 2.422l-1.631.395-4.473-4.892-6.177 3.558c.197-1.062.37-2.174.568-3.311l6.499-2.125 4.028 4.744 1.779-.79z" fill="#E5AE00"/></g><defs><clipPath id="clip0_552_2273"><path fill="#fff" d="M0 0h142.82v142.82H0z"/></clipPath></defs></svg>121 74.6721 24.6476 80.3061 25.6854C85.7424 26.6986 91.1787 27.5387 92.0188 25.7349C92.8095 24.0051 89.1277 20.1256 85.347 17.7534Z" fill="#60772F"/>
<path d="M106.35 83.7049L99.1597 88.6964L98.4431 82.8154L97.0346 80.9374L93.9952 83.9768C93.9705 83.1366 93.9211 82.247 93.8223 81.1845L99.6292 78.0957L101.977 84.4463L104.571 83.0378L106.276 81.827C106.326 82.4694 106.35 83.0872 106.35 83.7049Z" fill="#E5AE00"/>
<path d="M103.484 63.493L101.31 61.6397L99.9505 70.6096L95.8733 62.8505L92.4139 66.5818C92.1915 64.5803 91.9444 62.727 91.6973 60.9973L94.7861 58.1309L98.4679 65.8899L99.5057 58.1309L102.743 59.9347C102.94 61.0467 103.212 62.2328 103.484 63.493Z" fill="#E5AE00"/>
<path d="M97.6775 42.8846L95.849 46.7394L90.3633 44.3178L88.5841 49.3834C88.2876 48.741 87.9416 48.1232 87.5957 47.5302L88.0405 41.1055L95.8737 43.5271L96.9609 41.3526C97.208 41.8715 97.4551 42.3904 97.6775 42.8846Z" fill="#E5AE00"/>
<path d="M87.2988 29.9847L85.3714 36.3353L80.0834 32.604L79.8857 39.1029C79.5644 38.9052 79.2432 38.7075 78.8973 38.5345C78.6749 37.9168 78.4525 37.299 78.1807 36.706L78.6007 30.0589L84.3583 32.95L85.4208 28.6504C86.0633 29.0705 86.681 29.5153 87.2988 29.9847Z" fill="#E5AE00"/>
<path d="M104.844 99.6685C104.671 100.484 104.473 101.275 104.251 102.09L102.62 102.485L98.1473 97.5928L91.9697 101.151C92.1674 100.089 92.3404 98.9766 92.5381 97.8399L99.0369 95.7148L103.065 100.459L104.844 99.6685Z" fill="#E5AE00"/>
</g>
<defs>
<clipPath id="clip0_552_2273">
<rect width="142.82" height="142.82" fill="white"/>
</clipPath>
</defs>
</svg>
